<svg viewBox="0 0 480 420" role="img" aria-label="{{s:home.d4_step}}: {{s:home.d4_step2}} → {{s:home.d4_band}}: {{s:home.d4_band2}} → {{s:home.d4_check}}: {{s:home.d4_check2}} → {{s:home.d4_yes}}: {{s:home.d4_yes2}} / {{s:home.d4_no}}: {{s:home.d4_no2}}" xmlns="http://www.w3.org/2000/svg">
        <defs><marker id="arr-dryrun" viewBox="0 0 10 10" refX="9" refY="5" markerWidth="7" markerHeight="7" orient="auto-start-reverse"><path d="M0 0L10 5L0 10z" fill="currentColor"/></marker></defs>
        <g class="dg-boxes">
          <rect x="60" y="10" width="360" height="64" rx="10"/><text x="240" y="36" text-anchor="middle" class="dg-h">{{s:home.d4_step}}</text><text x="240" y="60" text-anchor="middle" class="dg-labels">{{s:home.d4_step2}}</text>
          <rect x="60" y="108" width="360" height="64" rx="10"/><text x="240" y="134" text-anchor="middle" class="dg-h">{{s:home.d4_band}}</text><text x="240" y="158" text-anchor="middle" class="dg-labels">{{s:home.d4_band2}}</text>
          <rect x="60" y="206" width="360" height="64" rx="10" class="dg-check"/><text x="240" y="232" text-anchor="middle" class="dg-h">{{s:home.d4_check}}</text><text x="240" y="256" text-anchor="middle" class="dg-labels">{{s:home.d4_check2}}</text>
          <rect x="10" y="330" width="220" height="80" rx="10"/><text x="120" y="358" text-anchor="middle" class="dg-h">{{s:home.d4_yes}}</text><text x="120" y="382" text-anchor="middle" class="dg-labels"><tspan x="120">{{s:home.d4_yes2}}</tspan></text>
          <rect x="250" y="330" width="220" height="80" rx="10" class="dg-check"/><text x="360" y="358" text-anchor="middle" class="dg-warn">{{s:home.d4_no}}</text><text x="360" y="382" text-anchor="middle" class="dg-labels"><tspan x="360">{{s:home.d4_no2}}</tspan></text>
        </g>
        <g class="dg-arrows" marker-end="url(#arr-dryrun)" style="color: var(--ink-2)">
          <line x1="240" y1="74" x2="240" y2="104"/><line x1="240" y1="172" x2="240" y2="202"/>
          <line x1="200" y1="270" x2="130" y2="326"/><line x1="280" y1="270" x2="350" y2="326"/>
        </g>
      </svg>
